<?xml version="1.0" encoding="UTF-8"?>
<svg width="82px" height="82px" viewBox="0 0 82 82" version="1.1" xmlns="http://www.w3.org/2000/svg" xmlns:xlink="http://www.w3.org/1999/xlink">
    <!-- Generator: Sketch 52.5 (67469) - http://www.bohemiancoding.com/sketch -->
    <title>Artboard</title>
    <desc>Created with Sketch.</desc>
    <g id="Artboard" stroke="none" stroke-width="1" fill="none" fill-rule="evenodd">
        <g id="noun_Plus_60246" transform="translate(4.000000, 4.000000)">
            <g id="Group-10">
                <path d="M54.5,34.5 L39.5,34.5 L39.5,19.5 C39.5,18.119 38.381,17 37,17 C35.619,17 34.5,18.119 34.5,19.5 L34.5,34.5 L19.5,34.5 C18.119,34.5 17,35.619 17,37 C17,38.381 18.119,39.5 19.5,39.5 L34.5,39.5 L34.5,54.5 C34.5,55.881 35.619,57 37,57 C38.381,57 39.5,55.881 39.5,54.5 L39.5,39.5 L54.5,39.5 C55.881,39.5 57,38.381 57,37 C57,35.619 55.881,34.5 54.5,34.5 Z" id="Shape" fill="#FFFFFF" fill-rule="nonzero"></path>
                <circle id="Oval" stroke="#A06161" stroke-width="8" cx="37" cy="37" r="37"></circle>
            </g>
        </g>
    </g>
</svg>